<svg width="53" height="51" viewBox="0 0 53 51" fill="none" xmlns="http://www.w3.org/2000/svg">
<path d="M50.8899 21.3819L42.3073 29.7884L37.4092 24.9821L41.1111 21.3819C41.4057 21.0448 41.3858 20.5426 41.0653 20.2288C40.7453 19.9153 40.2327 19.8958 39.8885 20.1844L36.1782 23.7763L33.7332 21.3731L42.3073 12.9666C42.6434 12.6353 42.6434 12.1004 42.3073 11.7691C41.9691 11.4399 41.423 11.4399 41.0848 11.7691L31.8868 20.779C31.7225 20.9382 31.6302 21.1555 31.6302 21.3819C31.6302 21.6082 31.7225 21.8251 31.8868 21.9847L33.1177 23.1817L31.8868 24.3879C30.4314 22.9612 28.1523 22.7339 26.4337 23.8443L25.7577 23.1817C24.9453 22.3882 23.8447 21.9424 22.6972 21.942C22.1549 21.942 21.6169 22.0399 21.1106 22.231L19.6282 20.779L20.2437 20.1844C20.4079 20.0248 20.5002 19.8079 20.5002 19.5815C20.5002 19.3552 20.4079 19.1379 20.2437 18.9787L11.6353 10.5721C11.2954 10.2412 10.7459 10.2433 10.4085 10.5763C10.0707 10.9092 10.0728 11.447 10.4128 11.7779L18.3798 19.5815L17.7644 20.1757L13.4297 24.3792L10.3696 21.3731C10.2066 21.2123 9.98522 21.1219 9.7541 21.1219C9.52297 21.1219 9.30116 21.2123 9.13861 21.3731C8.80208 21.7044 8.80208 22.2393 9.13861 22.5706L12.2072 25.5766L10.9762 26.7737L9.82309 28.0221L1.85601 20.1844C1.69346 20.0235 1.47165 19.9331 1.24053 19.9331C1.0094 19.9331 0.788009 20.0235 0.625035 20.1844C0.288929 20.5157 0.288929 21.0506 0.625035 21.3819L9.2076 29.7884C9.37142 29.9472 9.59282 30.0359 9.82309 30.0347C10.0538 30.0359 10.2752 29.9472 10.439 29.7884L11.6353 28.591L12.8574 29.7884C11.1654 31.4465 11.1654 34.1337 12.8574 35.7918L14.4875 37.3628C14.6501 37.5237 14.8719 37.6141 15.103 37.6141C15.3341 37.6141 15.5555 37.5237 15.7185 37.3628C16.0546 37.0315 16.0546 36.4967 15.7185 36.1654L14.1146 34.5948C13.6248 34.1167 13.3497 33.4674 13.3497 32.7903C13.3497 32.1128 13.6248 31.4635 14.1146 30.9858L14.7216 30.3913L20.8592 24.3792C21.8895 23.4218 23.5048 23.4218 24.5352 24.3792L30.0487 29.7797C30.3434 30.1168 30.3235 30.6189 30.0035 30.9328C29.683 31.2462 29.1704 31.2657 28.8267 30.9771L24.8298 27.0627C24.4878 26.7297 23.9345 26.7314 23.5946 27.0668C23.2547 27.4022 23.2564 27.9437 23.5988 28.2767L27.5953 32.1916C28.3386 32.9251 29.4604 33.1465 30.4352 32.7517C31.4105 32.357 32.0455 31.4245 32.043 30.3913C32.0421 29.7158 31.7678 29.0682 31.2797 28.591L27.7083 25.0923C28.7039 24.6504 29.8739 24.8452 30.6642 25.5849L38.0247 32.7945C38.5094 33.2729 38.7807 33.9206 38.7791 34.5948C38.7807 35.2689 38.5094 35.9162 38.0247 36.3947L35.5712 38.7978L33.0572 41.252L31.2797 43.0013L26.3732 47.8073C26.0349 48.1365 25.4889 48.1365 25.1507 47.8073C24.8145 47.4764 24.8145 46.9415 25.1507 46.6102L30.7078 41.1923C30.9551 40.985 31.063 40.6591 30.9868 40.3489C30.9106 40.0388 30.6634 39.7967 30.3468 39.722C30.0297 39.6474 29.6974 39.7527 29.4853 39.9953L23.9629 45.3958C23.6191 45.6844 23.1065 45.6649 22.7861 45.3514C22.466 45.0375 22.4461 44.5354 22.7408 44.1983L28.2543 38.7978C28.4186 38.6386 28.5109 38.4214 28.5109 38.195C28.5109 37.9686 28.4186 37.7517 28.2543 37.5921C27.9161 37.2629 27.3701 37.2629 27.0318 37.5921L21.5094 43.0013C21.1716 43.3305 20.6255 43.3305 20.2873 43.0013C20.123 42.8417 20.0307 42.6248 20.0307 42.3984C20.0307 42.1721 20.123 41.9548 20.2873 41.7956L25.8009 36.3947C25.9651 36.2354 26.0574 36.0182 26.0574 35.7918C26.0574 35.5654 25.9651 35.3486 25.8009 35.1889C25.4626 34.8597 24.9166 34.8597 24.5783 35.1889L19.0563 40.5981C18.7164 40.9286 18.1669 40.9269 17.8295 40.594C17.4917 40.261 17.4939 39.7229 17.8338 39.3924L24.5005 32.8707C24.8404 32.5378 24.8404 31.998 24.5005 31.665C24.1605 31.3321 23.6094 31.3321 23.2695 31.665L16.5681 38.212C15.5538 39.2067 15.5538 40.8179 16.5681 41.8126C17.0159 42.2604 17.6192 42.5274 18.2584 42.5597C18.3358 43.8525 19.3915 44.8829 20.7118 44.9542C20.7851 46.2507 21.8421 47.2857 23.1653 47.3574C23.1903 47.9959 23.4595 48.6025 23.9197 49.0557C24.7011 49.8194 25.8897 50.0172 26.8845 49.5483L27.5953 50.2531C28.3255 50.9688 29.4193 51.1935 30.3819 50.8253C31.3441 50.4571 31.9926 49.5661 32.0341 48.5548C32.6872 48.5353 33.3082 48.2708 33.7679 47.816C34.2183 47.3731 34.4867 46.784 34.5223 46.1599C35.846 46.0886 36.9025 45.0533 36.9758 43.7568C38.0082 43.7165 38.9179 43.0809 39.2938 42.1385C39.6701 41.1956 39.4407 40.1246 38.7096 39.4094L38.0941 38.8148L39.3251 37.6091C40.1353 36.8134 40.5904 35.7354 40.5908 34.6113C40.5705 33.7709 40.2958 32.9553 39.8018 32.2679L41.1111 30.9858L41.7265 31.5887C42.0648 31.9179 42.6108 31.9179 42.9491 31.5887L52.1209 22.5789C52.457 22.248 52.457 21.7127 52.1209 21.3819C51.9583 21.221 51.7365 21.1306 51.5054 21.1306C51.2743 21.1306 51.0529 21.221 50.8899 21.3819ZM12.8836 27.3852L18.4061 21.9847L19.6282 23.1817L14.1146 28.591L12.8836 27.3852ZM30.0487 49.0047C29.7105 49.3339 29.1645 49.3339 28.8267 49.0047L28.2112 48.4018L29.4422 47.2044L30.0487 47.799C30.213 47.9582 30.3053 48.1754 30.3053 48.4018C30.3053 48.6282 30.213 48.8455 30.0487 49.0047ZM32.5022 46.6015C32.164 46.9307 31.618 46.9307 31.2797 46.6015L30.7078 45.9987L31.3233 45.3958L31.9299 44.8012L32.5458 45.3958C32.7097 45.5554 32.8019 45.7723 32.8019 45.9987C32.8019 46.225 32.7097 46.4423 32.5458 46.6015H32.5022ZM34.9557 44.1983C34.6175 44.5276 34.0714 44.5276 33.7332 44.1983L33.1177 43.5955L34.3402 42.3984L34.9557 43.0013C35.2918 43.3326 35.2918 43.8675 34.9557 44.1983ZM37.4092 41.7956C37.2463 41.956 37.0249 42.0464 36.7937 42.0464C36.5626 42.0464 36.3408 41.956 36.1782 41.7956L35.5712 41.1923L36.7764 39.9953L37.3919 40.5981C37.7326 40.9245 37.7407 41.4597 37.4092 41.7956ZM38.6313 30.9858L33.1177 25.5849L34.3402 24.3879L39.8627 29.7884L38.6313 30.9858Z" fill="#FFBB01"/>
<path d="M16.8334 13.5865H35.9014C36.3801 13.5865 36.7682 13.2063 36.7682 12.7373V0.849155C36.7682 0.380213 36.3801 0 35.9014 0H16.8334C16.3547 0 15.9667 0.380213 15.9667 0.849155V12.7373C15.9667 13.2063 16.3547 13.5865 16.8334 13.5865ZM17.7001 10.1899C18.6574 10.1899 19.4336 10.9503 19.4336 11.8882H17.7001V10.1899ZM35.0347 11.8882H33.3012C33.3012 10.9503 34.0774 10.1899 35.0347 10.1899V11.8882ZM35.0347 3.39662C34.0774 3.39662 33.3012 2.6362 33.3012 1.69831H35.0347V3.39662ZM35.0347 5.09493V8.49155C33.1197 8.49155 31.5678 10.0124 31.5678 11.8882H21.167C21.167 10.0124 19.6147 8.49155 17.7001 8.49155V5.09493C19.6147 5.09493 21.167 3.57408 21.167 1.69831H31.5678C31.5678 3.57408 33.1197 5.09493 35.0347 5.09493ZM17.7001 1.69831H19.4336C19.4336 2.6362 18.6574 3.39662 17.7001 3.39662V1.69831Z" fill="#FFBB01"/>
<path d="M26.3667 10.1898C28.2811 10.1898 29.8332 8.669 29.8332 6.79323C29.8332 4.91746 28.2811 3.39661 26.3667 3.39661C24.4519 3.39661 22.9002 4.91746 22.9002 6.79323C22.9002 8.669 24.4519 10.1898 26.3667 10.1898ZM26.3667 5.09492C27.3239 5.09492 28.0999 5.85534 28.0999 6.79323C28.0999 7.73111 27.3239 8.49154 26.3667 8.49154C25.4095 8.49154 24.6335 7.73111 24.6335 6.79323C24.6335 5.85534 25.4095 5.09492 26.3667 5.09492Z" fill="#FFBB01"/>
<path d="M33.3008 6.79319C33.3008 7.26213 32.9128 7.64234 32.4342 7.64234C31.9556 7.64234 31.5675 7.26213 31.5675 6.79319C31.5675 6.32424 31.9556 5.94403 32.4342 5.94403C32.9128 5.94403 33.3008 6.32424 33.3008 6.79319Z" fill="#FFBB01"/>
<path d="M21.1666 6.79319C21.1666 7.26213 20.7786 7.64234 20.3 7.64234C19.8214 7.64234 19.4334 7.26213 19.4334 6.79319C19.4334 6.32424 19.8214 5.94403 20.3 5.94403C20.7786 5.94403 21.1666 6.32424 21.1666 6.79319Z" fill="#FFBB01"/>
<path d="M52.2219 5.47712L48.755 0.382182C48.5937 0.147089 48.3241 0.00653076 48.0355 0.00653076C47.7469 0.00653076 47.4769 0.147089 47.3161 0.382182L43.8491 5.47712C43.7543 5.61519 43.7031 5.77772 43.7019 5.94398V9.34061C43.7019 9.80955 44.0899 10.1898 44.5686 10.1898C45.0472 10.1898 45.4353 9.80955 45.4353 9.34061V6.19857L48.0355 2.37737L50.6357 6.19857V15.2847C50.6357 15.7536 51.0238 16.1339 51.5024 16.1339C51.9811 16.1339 52.3692 15.7536 52.3692 15.2847V5.94398C52.3679 5.77772 52.3167 5.61519 52.2219 5.47712Z" fill="#FFBB01"/>
<path d="M48.9021 11.8881V6.79319C48.9021 6.32424 48.5141 5.94403 48.0355 5.94403C47.5569 5.94403 47.1689 6.32424 47.1689 6.79319V11.8881C47.1689 12.3571 47.5569 12.7373 48.0355 12.7373C48.5141 12.7373 48.9021 12.3571 48.9021 11.8881Z" fill="#FFBB01"/>
<path d="M1.23195 7.64232H2.09868V17.8322C2.09868 18.3011 2.48676 18.6813 2.96541 18.6813C3.44405 18.6813 3.83213 18.3011 3.83213 17.8322V6.79316C3.83213 6.32422 3.44405 5.94401 2.96541 5.94401H2.91335L5.56559 2.3098L8.21783 5.94401H8.16578C7.68713 5.94401 7.29905 6.32422 7.29905 6.79316V8.49147C7.29905 8.96042 7.68713 9.34063 8.16578 9.34063C8.64443 9.34063 9.03251 8.96042 9.03251 8.49147V7.64232H9.89924C10.223 7.64066 10.5188 7.46278 10.6665 7.18042C10.8142 6.89848 10.7888 6.5589 10.6013 6.30059L6.26769 0.356499C6.10434 0.135917 5.84364 0.00531006 5.56559 0.00531006C5.28755 0.00531006 5.02643 0.135917 4.86349 0.356499L0.529846 6.30059C0.341942 6.5589 0.316972 6.89848 0.464672 7.18042C0.612371 7.46278 0.908194 7.64066 1.23195 7.64232Z" fill="#FFBB01"/>
<path d="M5.56491 11.8882V14.4357C5.56491 14.9046 5.95294 15.2848 6.43153 15.2848C6.91012 15.2848 7.29815 14.9046 7.29815 14.4357V11.8882C7.29815 11.4193 6.91012 11.0391 6.43153 11.0391C5.95294 11.0391 5.56491 11.4193 5.56491 11.8882Z" fill="#FFBB01"/>
</svg>
