<svg width="53" height="51" viewBox="0 0 53 51" fill="none" xmlns="http://www.w3.org/2000/svg">
<path d="M44.9187 37.4369L41.7992 40.4455L39.9309 38.6353C39.5854 38.3021 39.0251 38.3021 38.6796 38.6353C38.3341 38.9686 38.3341 39.5089 38.6796 39.8421L41.1735 42.2473C41.3388 42.4083 41.5642 42.4988 41.7992 42.4988C42.0341 42.4988 42.2591 42.4083 42.4248 42.2473L46.2053 38.6353C46.4566 38.4279 46.5663 38.1017 46.4888 37.7913C46.4114 37.4805 46.1601 37.2381 45.8383 37.1634C45.5164 37.0887 45.1782 37.1945 44.9626 37.4369H44.9187Z" fill="#FFBB01"/>
<path d="M46.2062 31.5305V28.8958C46.2062 28.4264 45.8116 28.0459 45.3249 28.0459H42.6809V27.196C42.6809 25.788 43.8648 24.6464 45.3249 24.6464C45.8116 24.6464 46.2062 24.2659 46.2062 23.7965C46.2062 23.3272 45.8116 22.9467 45.3249 22.9467C42.8913 22.9467 40.9182 24.8493 40.9182 27.196V28.0459H38.2742C37.7875 28.0459 37.3929 28.4264 37.3929 28.8958V31.5305C32.8731 33.5282 30.4068 38.2921 31.4667 42.976C32.5271 47.6602 36.8274 51 41.7996 51C46.7713 51 51.0721 47.6602 52.1324 42.976C53.1924 38.2921 50.7261 33.5282 46.2062 31.5305ZM42.6809 49.2928V48.4429C42.6809 47.9736 42.2863 47.593 41.7996 47.593C41.3129 47.593 40.9182 47.9736 40.9182 48.4429V49.2928C36.7155 48.9043 33.389 45.6966 32.9862 41.6439H33.8676C34.3543 41.6439 34.7489 41.2634 34.7489 40.794C34.7489 40.3247 34.3543 39.9441 33.8676 39.9441H32.9862C33.3185 36.77 35.4658 34.0427 38.5475 32.8816C38.8866 32.7555 39.1104 32.4418 39.1117 32.0911V29.7457H44.3997V32.0911C44.4005 32.4418 44.6243 32.7555 44.9634 32.8816C48.0795 34.0174 50.2652 36.7496 50.6129 39.9441H49.7316C49.2449 39.9441 48.8502 40.3247 48.8502 40.794C48.8502 41.2634 49.2449 41.6439 49.7316 41.6439H50.6129C50.2101 45.6966 46.8836 48.9043 42.6809 49.2928Z" fill="#FFBB01"/>
<path d="M28.7644 44.1935C28.5793 44.1935 4.78332 44.1935 4.78332 44.1935C3.32318 44.1935 2.13932 43.0519 2.13932 41.6439V14.4479H47.9687V30.1365C47.9687 30.6059 48.3633 30.9864 48.85 30.9864C49.3368 30.9864 49.7314 30.6059 49.7314 30.1365V8.49875C49.7314 6.15205 47.7583 4.24938 45.3247 4.24938H43.562V3.3995C43.562 2.93016 43.1674 2.54963 42.6807 2.54963C42.194 2.54963 41.7994 2.93016 41.7994 3.3995V6.799C41.7994 7.73768 41.0101 8.49875 40.0367 8.49875C39.0633 8.49875 38.274 7.73768 38.274 6.799V3.3995C38.274 2.46082 39.0633 1.69975 40.0367 1.69975C40.5234 1.69975 40.918 1.31922 40.918 0.849875C40.918 0.380535 40.5234 0 40.0367 0C38.0898 0 36.5114 1.52214 36.5114 3.3995V4.24938H28.5793V3.3995C28.5793 2.93016 28.1847 2.54963 27.698 2.54963C27.2113 2.54963 26.8167 2.93016 26.8167 3.3995V6.799C26.8167 7.73768 26.0274 8.49875 25.054 8.49875C24.0806 8.49875 23.2913 7.73768 23.2913 6.799V3.3995C23.2913 2.46082 24.0806 1.69975 25.054 1.69975C25.5407 1.69975 25.9353 1.31922 25.9353 0.849875C25.9353 0.380535 25.5407 0 25.054 0C23.1072 0 21.5287 1.52214 21.5287 3.3995V4.24938H13.5967V3.3995C13.5967 2.93016 13.202 2.54963 12.7153 2.54963C12.2286 2.54963 11.834 2.93016 11.834 3.3995V6.799C11.834 7.73768 11.0448 8.49875 10.0713 8.49875C9.0979 8.49875 8.30866 7.73768 8.30866 6.799V3.3995C8.30866 2.46082 9.0979 1.69975 10.0713 1.69975C10.558 1.69975 10.9527 1.31922 10.9527 0.849875C10.9527 0.380535 10.558 0 10.0713 0C8.12447 0 6.54599 1.52214 6.54599 3.3995V4.24938H4.78332C2.34975 4.24938 0.376648 6.15205 0.376648 8.49875V41.6439C0.376648 43.9906 2.34975 45.8933 4.78332 45.8933H25.054C29.681 45.8933 29.681 45.8933 29.681 45.0434C29.6823 44.8176 29.5902 44.6002 29.4254 44.44C29.2507 44.2724 29.011 44.1827 28.7644 44.1935ZM4.78332 5.94913H6.54599V6.799C6.54599 8.67636 8.12447 10.1985 10.0713 10.1985C12.0182 10.1985 13.5967 8.67636 13.5967 6.799V5.94913H21.5287V6.799C21.5287 8.67636 23.1072 10.1985 25.054 10.1985C27.0009 10.1985 28.5793 8.67636 28.5793 6.799V5.94913H36.5114V6.799C36.5114 8.67636 38.0898 10.1985 40.0367 10.1985C41.9835 10.1985 43.562 8.67636 43.562 6.799V5.94913H45.3247C46.7848 5.94913 47.9687 7.09073 47.9687 8.49875V12.7481H2.13932V8.49875C2.13932 7.09073 3.32318 5.94913 4.78332 5.94913Z" fill="#FFBB01"/>
<path d="M16.2409 17.8474C16.2409 17.378 15.8463 16.9975 15.3596 16.9975H8.30889C7.82217 16.9975 7.42755 17.378 7.42755 17.8474V24.6464C7.42755 25.1157 7.82217 25.4963 8.30889 25.4963H15.3596C15.8463 25.4963 16.2409 25.1157 16.2409 24.6464V17.8474ZM14.4782 23.7965H9.19022V18.6972H14.4782V23.7965Z" fill="#FFBB01"/>
<path d="M15.3596 30.5956C15.8463 30.5956 16.2409 30.215 16.2409 29.7457C16.2409 29.2763 15.8463 28.8958 15.3596 28.8958H8.30889C7.82217 28.8958 7.42755 29.2763 7.42755 29.7457V36.5447C7.42755 37.014 7.82217 37.3946 8.30889 37.3946H15.3596C15.8463 37.3946 16.2409 37.014 16.2409 36.5447V33.1452C16.2409 32.6758 15.8463 32.2953 15.3596 32.2953C14.8728 32.2953 14.4782 32.6758 14.4782 33.1452V35.6948H9.19022V30.5956H15.3596Z" fill="#FFBB01"/>
<path d="M20.6476 28.8958C20.1609 28.8958 19.7663 29.2763 19.7663 29.7457V36.5447C19.7663 37.014 20.1609 37.3946 20.6476 37.3946H27.6983C28.185 37.3946 28.5796 37.014 28.5796 36.5447V29.7457C28.5796 29.2763 28.185 28.8958 27.6983 28.8958H20.6476ZM26.817 35.6948H21.529V30.5956H26.817V35.6948Z" fill="#FFBB01"/>
<path d="M40.0369 23.7965C40.5236 23.7965 40.9182 23.416 40.9182 22.9466V17.8474C40.9182 17.378 40.5236 16.9975 40.0369 16.9975H32.9863C32.4995 16.9975 32.1049 17.378 32.1049 17.8474V24.6464C32.1049 25.1157 32.4995 25.4963 32.9863 25.4963C33.473 25.4963 33.8676 25.1157 33.8676 24.6464V18.6972H39.1556V22.9466C39.1556 23.416 39.5502 23.7965 40.0369 23.7965Z" fill="#FFBB01"/>
<path d="M28.324 17.244C28.1583 17.083 27.9333 16.9926 27.6983 16.9926C27.4633 16.9926 27.2378 17.083 27.0726 17.244L24.173 20.0485L21.2733 17.244C20.9278 16.9108 20.3675 16.9108 20.0219 17.244C19.6764 17.5773 19.6764 18.1176 20.0219 18.4508L22.9302 21.2469L20.0219 24.043C19.855 24.2024 19.7611 24.4198 19.7611 24.6464C19.7611 24.873 19.855 25.0904 20.0219 25.2498C20.1872 25.4108 20.4127 25.5013 20.6476 25.5013C20.8826 25.5013 21.1077 25.4108 21.2733 25.2498L24.173 22.4454L27.0726 25.2498C27.2378 25.4108 27.4633 25.5013 27.6983 25.5013C27.9333 25.5013 28.1583 25.4108 28.324 25.2498C28.491 25.0904 28.5848 24.873 28.5848 24.6464C28.5848 24.4198 28.491 24.2024 28.324 24.043L25.4158 21.2469L28.324 18.4508C28.491 18.2914 28.5848 18.074 28.5848 17.8474C28.5848 17.6208 28.491 17.4034 28.324 17.244Z" fill="#FFBB01"/>
</svg>
