<svg width="53" height="51" viewBox="0 0 53 51" fill="none" xmlns="http://www.w3.org/2000/svg">
<path d="M52.7309 12.0825C52.5525 11.4297 52.1173 10.8731 51.5217 10.5357C50.9258 10.1966 50.2173 10.1049 49.5526 10.2804C48.8887 10.4564 48.3232 10.8843 47.9803 11.4704L47.5484 12.21C47.138 11.978 46.6138 12.1145 46.3738 12.5163L44.1798 16.1964L43.4283 15.7714C43.2292 15.6581 42.9922 15.6274 42.7703 15.6863C42.5481 15.7457 42.3591 15.8893 42.2448 16.086C42.0107 16.4923 42.1533 17.0086 42.5645 17.2419L43.3161 17.6669L35.9742 30.1874L34.1602 34.9562L33.2964 36.5454C32.7908 37.4111 32.8447 38.4873 33.4348 39.2996L31.4913 41.6454L30.9473 40.3027C30.7018 39.7042 30.1337 39.2942 29.4804 39.2439C28.8267 39.1933 28.2004 39.5112 27.8634 40.0645L27.5526 40.5829L27.259 37.1829C27.1915 36.3785 26.5585 35.7319 25.7445 35.6348C24.9301 35.5381 24.1591 36.0183 23.8989 36.7836L21.7741 43.0565C21.6256 43.5002 21.8686 43.9783 22.3182 44.1277C22.4025 44.1663 22.4932 44.1895 22.586 44.1954C22.9571 44.1966 23.2878 43.9638 23.4067 43.6176L25.5226 37.3447L25.825 40.7954C25.8875 41.5316 26.4252 42.1438 27.1565 42.3107C27.8878 42.4775 28.6445 42.1604 29.0295 41.5267L29.3492 41.0079L29.8849 42.3426C30.1122 42.905 30.6263 43.3063 31.2349 43.3956C31.8435 43.4848 32.4542 43.2487 32.8388 42.7759L34.8514 40.2687C35.0741 40.3259 35.3036 40.3546 35.5338 40.3538C36.4596 40.3608 37.3191 39.881 37.7881 39.0954L38.6519 37.6759L41.9428 33.7405L49.3624 21.0669L50.1139 21.4919C50.3143 21.6048 50.4602 21.7911 50.5197 22.0107C50.5795 22.2286 50.5483 22.461 50.4336 22.6565L46.9786 28.5471C46.8483 28.7405 46.804 28.978 46.8563 29.2046C46.9086 29.4308 47.0524 29.6262 47.2549 29.7454C47.4539 29.8591 47.6909 29.8898 47.9128 29.8309C48.1351 29.7715 48.324 29.6279 48.4383 29.4312L51.8933 23.5405C52.2379 22.9541 52.3311 22.2568 52.1523 21.6027C51.9734 20.9494 51.5386 20.3929 50.9431 20.0554L50.1915 19.6304L52.3509 15.9499C52.5867 15.546 52.4479 15.0306 52.0401 14.794L52.472 14.0544C52.8258 13.4588 52.9194 12.7474 52.7309 12.0825ZM49.4745 12.3204C49.5888 12.1236 49.7786 11.9796 50.0017 11.9211C50.2236 11.8671 50.4581 11.8974 50.658 12.0062C50.8583 12.1187 51.0043 12.3054 51.0641 12.5246C51.119 12.7429 51.0882 12.9736 50.9777 13.1704L50.5458 13.91L49.0427 13.06L49.4745 12.3204ZM37.7017 36.0527L37.2698 35.8062L35.9915 35.0749L37.2179 31.845L39.9387 33.3919L37.7017 36.0527ZM35.1104 38.5089C34.7456 38.2586 34.6334 37.7772 34.8514 37.3954L35.2833 36.6562L36.786 37.5062L36.3542 38.2371C36.2331 38.4437 36.0298 38.5907 35.7932 38.6425C35.5566 38.694 35.3091 38.6459 35.1104 38.5089ZM40.9235 31.9982L37.9349 30.2982L44.8449 18.5169L47.8335 20.2169L40.9235 31.9982ZM48.6973 18.7464L45.7087 17.0464L47.4362 14.1054L50.4248 15.8054L48.6973 18.7464Z" fill="#FFBB01"/>
<path d="M14.626 38.0885L11.5691 41.0893L9.73805 39.2872C9.40111 38.9576 8.85711 38.9576 8.52017 39.2872C8.35655 39.4469 8.26462 39.664 8.26462 39.8906C8.26462 40.1172 8.35655 40.3347 8.52017 40.4941L10.3512 42.2962C10.6751 42.6124 11.1128 42.7897 11.5691 42.7892C12.0279 42.7917 12.4694 42.6145 12.7954 42.2962L15.8439 39.2872C16.1374 38.9497 16.1176 38.4471 15.7987 38.1334C15.4795 37.8192 14.9688 37.7997 14.626 38.0885Z" fill="#FFBB01"/>
<path d="M4.45139 40.375C4.45139 44.3656 7.73855 47.6 11.7933 47.6C15.8481 47.6 19.1352 44.3656 19.1352 40.375C19.1352 39.9056 18.7485 39.525 18.2715 39.525C17.7945 39.525 17.4077 39.9056 17.4077 40.375C17.4077 43.4264 14.894 45.9 11.7933 45.9C8.69256 45.9 6.1789 43.4264 6.1789 40.375C6.1789 37.3236 8.69256 34.85 11.7933 34.85C13.0088 34.8467 14.1918 35.2347 15.1619 35.9552C15.5436 36.237 16.0851 36.1607 16.371 35.7851C16.6574 35.4095 16.5802 34.877 16.1985 34.5951C13.9738 32.9532 10.997 32.6893 8.50994 33.9128C6.02242 35.1368 4.45139 37.6386 4.45139 40.375Z" fill="#FFBB01"/>
<path d="M32.092 6.79998C32.569 6.79998 32.9557 6.4198 32.9557 5.94998C32.9557 5.48057 32.569 5.09998 32.092 5.09998H9.63435C9.15735 5.09998 8.7706 5.48057 8.7706 5.94998V9.34998C8.7706 9.8198 9.15735 10.2 9.63435 10.2H32.092C32.569 10.2 32.9557 9.8198 32.9557 9.34998C32.9557 8.88057 32.569 8.49998 32.092 8.49998H10.4981V6.79998H32.092Z" fill="#FFBB01"/>
<path d="M12.2257 11.9C11.7487 11.9 11.3619 12.2806 11.3619 12.75C11.3619 13.2198 11.7487 13.6 12.2257 13.6H29.5008C29.9778 13.6 30.3646 13.2198 30.3646 12.75C30.3646 12.2806 29.9778 11.9 29.5008 11.9H12.2257Z" fill="#FFBB01"/>
<path d="M34.6834 17.8499H15.6808C15.2038 17.8499 14.817 18.2305 14.817 18.6999C14.817 19.1697 15.2038 19.5499 15.6808 19.5499H34.6834C35.1604 19.5499 35.5471 19.1697 35.5471 18.6999C35.5471 18.2305 35.1604 17.8499 34.6834 17.8499Z" fill="#FFBB01"/>
<path d="M26.0449 23.8C26.0449 23.3306 25.6581 22.95 25.1811 22.95H7.90602C7.42902 22.95 7.04227 23.3306 7.04227 23.8C7.04227 24.2698 7.42902 24.65 7.90602 24.65H25.1811C25.6581 24.65 26.0449 24.2698 26.0449 23.8Z" fill="#FFBB01"/>
<path d="M34.6824 22.95H28.6369C28.16 22.95 27.7733 23.3306 27.7733 23.8C27.7733 24.2698 28.16 24.65 28.6369 24.65H34.6824C35.1594 24.65 35.5461 24.2698 35.5461 23.8C35.5461 23.3306 35.1594 22.95 34.6824 22.95Z" fill="#FFBB01"/>
<path d="M16.5436 28.9C17.0206 28.9 17.4073 28.5198 17.4073 28.05C17.4073 27.5806 17.0206 27.2 16.5436 27.2H7.90602C7.42902 27.2 7.04227 27.5806 7.04227 28.05C7.04227 28.5198 7.42902 28.9 7.90602 28.9H16.5436Z" fill="#FFBB01"/>
<path d="M19.9993 28.9H26.0449C26.5218 28.9 26.9085 28.5198 26.9085 28.05C26.9085 27.5806 26.5218 27.2 26.0449 27.2H19.9993C19.5224 27.2 19.1357 27.5806 19.1357 28.05C19.1357 28.5198 19.5224 28.9 19.9993 28.9Z" fill="#FFBB01"/>
<path d="M39.8657 39.1C39.3887 39.1 39.0019 39.4806 39.0019 39.95V48.45C39.0019 48.9198 38.6152 49.3 38.1382 49.3H3.588C3.11099 49.3 2.72424 48.9198 2.72424 48.45V2.55C2.72424 2.08059 3.11099 1.7 3.588 1.7H38.1382C38.6152 1.7 39.0019 2.08059 39.0019 2.55V18.5132C39.0019 18.9826 39.3887 19.3632 39.8657 19.3632C40.3427 19.3632 40.7295 18.9826 40.7295 18.5132V2.55C40.7295 1.14177 39.5692 0 38.1382 0H3.588C2.15698 0 0.996735 1.14177 0.996735 2.55V48.45C0.996735 49.8586 2.15698 51 3.588 51H38.1382C39.5692 51 40.7295 49.8586 40.7295 48.45V39.95C40.7295 39.4806 40.3427 39.1 39.8657 39.1Z" fill="#FFBB01"/>
</svg>
